<svg xmlns="http://www.w3.org/2000/svg" width="446" height="428" viewBox="479 167 446 428"><path fill="#CC6946" d="m822.918 187.832 2.216-.013q3.526-.013 7.053-.006h2.434c12.544.02 24.95.34 37.379 2.187l2.05.292c9.946 1.502 18.806 4.366 25.263 12.458A116 116 0 0 1 902 207l1.473 2.277c4.75 8.166 4.724 16.654 2.59 25.723-3.904 11.237-13.074 20.609-20.75 29.465-1.989 2.325-3.897 4.713-5.813 7.098-4.125 5.07-8.496 9.869-12.937 14.66-2.664 2.887-5.254 5.826-7.829 8.793-4.23 4.84-8.561 9.595-12.886 14.351C839.42 316.457 833.2 323.713 827 331l-1.48 1.734c-4.627 5.423-9.227 10.857-13.645 16.454-3.412 4.304-7.024 8.386-10.723 12.445A383 383 0 0 0 795.5 368l-3.5 4-2.363 2.719-2.45 2.781-2.269 2.594C783 382 783 382 781 382v2c-1.293 1.34-1.293 1.34-3.187 2.938l-2.231 1.886L773 391l-2.863 2.52c-21.698 18.996-48.388 35.077-76.887 41.043l-3.234.69c-32.125 6.21-64.715 6.187-97.292 6.011-4.245-.019-8.49-.023-12.735-.026q-7.743-.01-15.485-.035l-2.866-.006c-9.834-.025-19.656-.16-29.482-.585l-2.437-.09c-9.053-.447-16.261-2.188-22.969-8.71-8.119-13.047-6.078-35.15-6.01-49.903.01-2.803 0-5.606-.013-8.409-.025-29.798-.025-29.798 7.914-38.246 5.712-5.178 10.634-6.552 18.326-6.525l2.393-.016q2.575-.015 5.15-.018 4.136-.008 8.273-.04c7.843-.056 15.687-.086 23.53-.111 20.027-.071 39.993-.274 59.968-1.83l2.229-.162c8.002-.602 15.758-1.658 23.582-3.468l2.078-.48c23.315-5.746 41.176-26.29 56.302-43.833 1.927-2.233 3.913-4.407 5.903-6.584 4.733-5.245 9.186-10.692 13.625-16.187q3.372-4.124 6.75-8.246 2.257-2.763 4.5-5.54a358 358 0 0 1 13.633-15.878 311 311 0 0 0 5.617-6.399c17.1-19.482 35.76-32.058 62.418-32.105"/><path fill="#E5A03D" d="m576.918 466.832 4.175-.01a3855 3855 0 0 1 8.69-.007q4.392 0 8.782-.02c54.698-.252 54.698-.252 75.476 20.072 4.505 4.47 8.862 9.028 12.975 13.863 2.817 3.222 5.746 6.334 8.672 9.457l1.836 1.966a1781 1781 0 0 0 8.734 9.284c22.601 23.957 22.601 23.957 23.367 36.563-.357 6.843-3.535 13.414-8.625 18-8.554 5.345-18.445 4.546-28.125 4.46h-5.408c-4.825-.002-9.649-.03-14.474-.065q-4.492-.029-8.987-.042c-26.74-.084-53.466-.46-80.193-1.29l-2.126-.066q-6.897-.215-13.792-.462l-3.425-.117c-4.918-.19-9.623-.521-14.47-1.418a227 227 0 0 0-6.176-.36l-3.51-.195q-3.608-.195-7.218-.343c-8.78-.526-14.803-2.318-21.436-8.164-.527-.64-1.054-1.28-1.598-1.938-.817-.96-.817-.96-1.652-1.937-9.71-14.204-7.814-39.061-7.848-55.688l-.017-2.548c-.097-20.193-.097-20.193 5.267-28.702 5.984-5.812 12.128-8.307 20.407-8.504l3.578-.103 3.703-.08q3.61-.093 7.219-.192l3.217-.072c3.538-.116 7.057-.402 10.587-.679 7.471-.546 14.906-.657 22.395-.663"/><path fill="#F2785C" d="M669.239 187.769q4.737-.017 9.476-.053 5.645-.04 11.289-.04 2.08-.004 4.162-.024c10.826-.097 22.13.006 30.53 7.653 4.628 6.014 4.032 13.5 3.304 20.695-3.06 11.017-13.263 21.71-21.406 29.45-1.718 1.67-3.278 3.424-4.844 5.237-6.698 7.752-13.62 15.28-20.93 22.458-1.828 1.863-3.51 3.799-5.195 5.792-6.36 7.257-12.59 13.02-21.437 17l-1.864.856c-11.443 4.782-24.05 4.498-36.234 4.437h-4.855q-5.075-.003-10.148-.024c-4.246-.017-8.49-.02-12.736-.02-72.274-.003-72.274-.003-81.351-8.186-7.793-8.409-6.335-22.727-6.25-33.438l.01-2.118c.228-44.02.228-44.02 9.24-56.444h2l1-3c7.825-5.27 15.745-6.28 24.984-6.598l2.84-.118c2.975-.124 5.95-.236 8.926-.347q5.868-.23 11.734-.472l2.864-.115c4.564-.19 9.1-.434 13.648-.873 9.407-.86 18.877-.868 28.317-1.04l3.305-.06c19.872-.356 39.746-.54 59.62-.608"/><path fill="#E5A03D" d="m793.188 409.688 2.792-.114c6.644.937 11.39 5.354 15.926 10.004l1.601 1.607a750 750 0 0 1 3.318 3.358 952 952 0 0 0 5.015 5.062c5.04 5.077 9.983 10.19 14.635 15.629 2.58 2.988 5.315 5.832 8.025 8.704 4.061 4.342 7.935 8.703 11.504 13.464 3.461 4.505 7.117 8.852 10.737 13.23a1101 1101 0 0 1 9.884 12.118c3.331 4.088 6.84 7.962 10.438 11.813 11.141 11.935 20.517 22.367 20.113 39.523-.574 9.506-4.541 17.183-11.25 24.031-10.95 9.16-23.447 9.748-37.119 10.678q-2.78.202-5.556.468c-8.154.779-16.265.956-24.45.977-2.298.01-4.594.041-6.89.072-10.956.08-21.053-.96-31.036-5.937l-2.695-1.29c-8.747-5.737-16.018-13.764-23.367-21.148l-2.577-2.564c-4.382-4.389-8.614-8.844-12.656-13.548-2.41-2.783-4.937-5.453-7.455-8.138-3.648-3.915-7.158-7.878-10.5-12.062-3.685-4.59-7.597-8.901-11.625-13.187l-1.83-1.952a944 944 0 0 0-7.857-8.279c-6.07-6.448-12.36-13.76-13.063-22.957.518-5.063 3.002-7.954 6.75-11.25 2.963-1.687 6.038-2.812 9.25-3.937q2.689-1.014 5.375-2.036l2.727-1.02c18.889-7.184 34.82-17.287 50.776-29.569a1027 1027 0 0 1 8.747-6.625l2.867-2.168c3.357-2.446 5.32-2.85 9.446-2.957"/><path fill="#D9A95E" d="m576.918 466.832 4.175-.01a3855 3855 0 0 1 8.69-.007q4.392 0 8.782-.02c54.57-.251 54.57-.251 70.435 15.205a78 78 0 0 1 3 4l-3 1-2.187-2.312c-2.652-2.732-2.652-2.732-5.625-4.375L659 479v-2l-5-2v-2c-12.014-2.793-24.067-3.154-36.36-3.133l-3.723-.003q-3.872 0-7.744.006-5.849.005-11.696-.007c-11.567-.003-23.07.082-34.61.892-4.252.27-8.494.4-12.754.491l-2.207.05c-2.953.067-5.907.13-8.86.18-2.208.04-4.414.092-6.62.145l-3.894.076c-3.495.3-6.239 1.149-9.532 2.303h-4l-.25 1.75c-.75 2.25-.75 2.25-2.625 4.063-5.297 5.452-5.583 11.626-5.637 18.84l-.054 2.727c-.054 2.852-.088 5.705-.122 8.558q-.05 2.914-.103 5.83-.125 7.116-.209 14.232h2l.332 3.516c.728 16.011.728 16.011 7.668 29.484v3l2.438.875C518 568 518 568 519 570c8.652 5.768 21.88 4.37 32 4.563q4.094.089 8.188.19l2.033.05c4.004.11 7.973.345 11.963.693 9.274.775 18.577.83 27.879 1.004q5.955.12 11.91.246l2.937.062c7.368.162 14.726.436 22.09.755 12.27.499 24.534.547 36.813.562l2.856.008c21.772 1.525 21.772 1.525 41.331-5.133 1.902-2.24 3.406-4.515 5-7l2-1v-17c3.4 5.1 3.769 8.924 3 15-2.064 5.667-4.61 10.881-9.843 14.152-8.478 3.86-17.178 3.389-26.282 3.309q-2.704-.003-5.408 0c-4.825-.003-9.649-.031-14.474-.066q-4.492-.029-8.987-.042c-26.74-.084-53.466-.46-80.193-1.29l-2.126-.066q-6.897-.215-13.792-.462l-3.425-.117c-4.918-.19-9.623-.521-14.47-1.418a227 227 0 0 0-6.176-.36l-3.51-.195q-3.608-.195-7.218-.343c-8.78-.526-14.803-2.318-21.436-8.164-.527-.64-1.054-1.28-1.598-1.938-.817-.96-.817-.96-1.652-1.937-9.71-14.204-7.814-39.061-7.848-55.688l-.017-2.548c-.097-20.193-.097-20.193 5.267-28.702 5.984-5.812 12.128-8.307 20.407-8.504l3.578-.103 3.703-.08q3.61-.093 7.219-.192l3.217-.072c3.538-.116 7.057-.402 10.587-.679 7.471-.546 14.906-.657 22.395-.663"/><path fill="#DD876C" d="M669.239 187.769q4.737-.017 9.476-.053 5.645-.04 11.289-.04 2.08-.004 4.162-.024c10.826-.097 22.13.006 30.53 7.653 4.628 6.014 4.032 13.5 3.304 20.695-3.236 11.652-14.314 22.951-23 31a535 535 0 0 0-3 3c.597-3.331 1.72-5.213 3.938-7.75l1.59-1.86C709 239 709 239 711 239l.297-1.773c.842-2.667 2.005-3.862 3.953-5.852 5.807-6.403 10.978-15.392 10.64-24.25-.235-2.72-.528-5.42-.89-8.125h-2l-2.187-2.375c-8.295-7.742-23.707-5.777-34.325-5.758l-3.586-.004q-5.794-.002-11.59.012l-4.013.004c-20.415.02-40.824.215-61.236.558l-3.73.06q-5.212.086-10.423.187l-3.098.05c-4.71.1-9.174.359-13.812 1.266a106 106 0 0 1-5.125 0c-5.805-.051-11.578.158-17.375.437l-2.645.12-2.511.127-2.244.11c-2.1.151-2.1.151-4.087.72-2.255.544-4.242.6-6.56.584l-2.558-.01-2.645-.026-2.691-.013q-3.28-.018-6.559-.049c4.091-2.192 7.677-3.091 12.303-3.281l2.55-.112 2.74-.107 2.857-.123q4.524-.194 9.05-.377a7534 7534 0 0 0 14.745-.624c4.602-.205 9.18-.46 13.767-.903 9.402-.856 18.866-.864 28.3-1.036l3.306-.06c19.872-.356 39.746-.54 59.62-.608"/><path fill="#FDF1CF" d="M726 568c.73 1.738.73 1.738 1 4-1.512 2.105-1.512 2.105-3.687 4.188-.706.694-1.41 1.39-2.137 2.105-2.215 1.738-3.447 2.26-6.176 2.707l-1.87.516c-2.158.49-3.995.584-6.204.547l-2.272-.024-2.341-.039a248 248 0 0 0-8.313 0l-1 1c-1.34.098-2.685.128-4.03.13l-2.588.009-2.816-.006-2.873.003q-3.015 0-6.03-.006-4.626-.005-9.25.007-2.924 0-5.847-.004l-2.809.006-2.599-.01-2.292-.002C650 583 650 583 648 582a246 246 0 0 0-8.766-.062l-5.537.025-2.945.019c-14.82.089-29.627.075-44.44-.42l-3.788-.119c-8.393-.312-8.393-.312-9.524-1.443a154 154 0 0 0-6.535-.246q-2.062-.047-4.123-.096l-2.183-.046c-33.287-.74-33.287-.74-37.159-4.612 9.643-.184 19.997-.369 29.488 1.486 5.122.75 10.237.872 15.407 1.05l3.683.13q6.117.21 12.235.396l2.124.066c26 .793 52.003 1.171 78.015 1.28q5.97.026 11.941.084 7.11.064 14.217.061 2.628.006 5.254.036c9.577.108 18.418.074 26.636-5.589 1.833-1.964 2.809-3.56 4-6"/><path fill="#DE876E" d="m670 280 4 1c-11.272 12.406-24.478 18.244-41 20-5.64.259-11.266.259-16.91.23h-4.855q-5.075-.003-10.148-.024c-4.246-.017-8.49-.02-12.736-.02-70.167-.002-70.167-.002-75.351-5.186q6.742.182 13.483.372 2.279.065 4.557.125c14.417.388 14.417.388 20.11.757 15.008.967 30.017.899 45.05.876q5.863-.006 11.727.004 4.59.005 9.179 0l4.322.002c8.907.012 17.702-.308 26.572-1.136v-2c3.004-2.003 4.71-2.493 8.188-3.125l2.73-.508L661 291v-3h2v-2a375 375 0 0 1 6-4z"/><path fill="#D7A558" d="M900 521c6.301 6.736 7.505 14.184 7.21 23.156-.702 9.482-4.568 17.106-11.284 23.961-10.949 9.16-23.45 9.752-37.122 10.678q-2.766.202-5.526.475c-9.18.9-18.315.842-27.528.793q-2.447-.009-4.895-.014-5.927-.017-11.855-.049v-1l1.764-.1q9.25-.529 18.5-1.072 3.432-.2 6.865-.395c11.379-.65 22.752-1.33 34.101-2.386l2.418-.21c6.288-.626 12.12-2.13 17.352-5.837a265 265 0 0 0 3-4h2l.75-1.875C897 561 897 561 898.969 560.203c2.249-1.065 2.249-1.065 3.078-3.601 2.377-10.063 2.521-19.41.953-29.602l-3-1z"/><path fill="#B97356" d="M639 326c-15.841 9.123-44.537 5.16-62.06 5.13q-5.702-.005-11.405.007c-14.208.003-28.351-.285-42.535-1.137v-1l2.983-.025q14.094-.117 28.187-.263 7.241-.075 14.483-.134c28.844-.208 28.844-.208 57.61-2.162 4.27-.42 8.45-.493 12.737-.416"/><path fill="#DAAE68" d="M726 548c3.4 5.1 3.769 8.924 3 15-2.4 6.59-5.393 12.102-11.91 15.163-8.433 3.193-17.662 2.326-26.535 2.228a3383 3383 0 0 0-5.944-.018c-5.185-.015-10.37-.054-15.555-.098-5.302-.041-10.605-.06-15.908-.08-10.383-.042-20.765-.11-31.148-.195v-1l2.708-.031q12.73-.148 25.46-.308 6.542-.083 13.084-.158 6.331-.073 12.663-.156 2.397-.03 4.795-.056c20.254 1.129 20.254 1.129 38.29-5.291 1.902-2.24 3.406-4.515 5-7l2-1z"/><path fill="#BE7758" d="m819 336 3 1c-13.924 17.088-13.924 17.088-21.059 24.879A320 320 0 0 0 795.5 368l-3.5 4-2.363 2.719-2.45 2.781-2.269 2.594C783 382 783 382 781 382v2c-1.61 1.656-1.61 1.656-3.75 3.5l-2.11 1.844c-1.985 1.536-3.859 2.628-6.14 3.656l-1-2h3v-3c5.349-5 5.349-5 8-5v-2h2v-2h2v-2h2l.813-1.937C787 373 787 373 790 372l.875-2.25c1.4-3.423 3.463-5.221 6.125-7.75l2-3h2l1-3h2l.875-1.812C806 352 806 352 808 349h2l1-4h2l.188-1.687c1.146-3.263 3.306-5 5.812-7.313"/><path fill="#BB7252" d="M815 188c40.618-.434 40.618-.434 57 2l2.05.292c10.126 1.529 18.953 4.433 25.388 12.77q1.312 1.95 2.562 3.938l1.938 2.875c.35.701.7 1.403 1.062 2.125l-1 2h-2v-4l-3-1-2-5-3-1a357 357 0 0 1-2-4c-9.715-6.233-21.784-6.165-32.996-7.303-3.154-.328-5.985-.69-9.004-1.697a224 224 0 0 0-7.95-.316l-2.34-.063a2801 2801 0 0 0-7.398-.184l-5.017-.13q-6.147-.16-12.295-.307z"/><path fill="#FDDBC5" d="M658.703 186.87q7.8.006 15.6-.004 6.078-.005 12.158 0 2.879 0 5.757-.002 3.999-.003 7.996.007l2.349-.007c4.893.02 9.591.445 14.437 1.136v2h5l-1 4c-.96-.68-.96-.68-1.937-1.375-7.54-4-15.65-3.908-24.009-3.852h-3.52c-3.815 0-7.63.016-11.444.032l-7.966.008q-9.386.011-18.773.043c-7.13.022-14.259.033-21.388.043q-21.981.032-43.963.101v-1c23.568-1.053 47.115-1.157 70.703-1.13"/><path fill="#FDEEC5" d="m792.188 408.938 3.292.027L798 409v1l-1.871.008c-7.347.335-11.432 2.5-17.129 6.992l-1.547 1.214q-3.516 2.761-7.018 5.539C760.202 431.84 749.415 438.719 738 445l-1-3c6.625-2.875 6.625-2.875 10-4l.75-2 1.25-2c3.625-.75 3.625-.75 7-1v-2h2l1-3c3.444-3 3.444-3 6-3l.762-1.8c2.549-4.528 7.322-7.641 12.238-9.075l2-.125v-2h3v-2c3.285-1.095 5.737-1.1 9.188-1.062"/><path fill="#DBA756" d="M801.133 410.723c3.844 2.055 6.404 4.73 8.867 8.277-3.403-1.059-6.014-2.009-9-4v-2c-6.501-.36-12.224-.287-18 3-2.772 2.52-2.772 2.52-5 5l-3 1c-1.48 1.606-1.48 1.606-2.875 3.5-2.08 2.543-2.796 3.393-6 4.438L764 430v2h-2v2l-6 1v2l-4-1 2.43-1.695c8.033-5.652 15.835-11.547 23.527-17.657l2.207-1.742 1.952-1.552c5.68-4.08 12.32-4.9 19.017-2.631"/><path fill="#D9A356" d="m583.895 467.741 3.602-.019 3.886.012 4.014-.005q4.21-.005 8.417.01c3.571.012 7.141.005 10.712-.007q4.149-.009 8.298 0c1.948.002 3.897-.004 5.845-.01 15.82.083 28.565 3.225 40.331 14.278a78 78 0 0 1 3 4l-3 1-2.187-2.313c-2.652-2.731-2.652-2.731-5.625-4.375L659 479v-2l-5-2v-2c-12.147-2.824-24.312-3.152-36.738-3.098l-3.778.005c-3.932.005-7.864.018-11.796.03q-4.03.008-8.061.014-9.814.017-19.627.049c3.38-2.038 5.979-2.253 9.895-2.259"/><path fill="#FAE3B5" d="M523 575c9.816-.187 20.125-.226 29.81 1.501 3.34.522 6.552.7 9.93.796l1.953.06q3.165.093 6.33.178l4.414.13q5.785.17 11.57.33 5.913.17 11.825.343 11.584.337 23.168.662v1c-43.783.19-43.783.19-65.375-.375-.687-.015-1.375-.03-2.083-.047-7.505-.174-14.939-.622-22.394-1.492l-2.079-.23c-4.828-.615-4.828-.615-7.069-2.856"/><path fill="#FCE6B8" d="m503 482 1 2-.917 2.621c-1.242 3.875-1.406 7.418-1.419 11.442l-.025 2.354a826 826 0 0 0-.014 7.583l-.004 2.606c.003 16.401 1.6 32.235 4.379 48.394l-4-2 .07-1.863.055-2.45.07-2.425c-.037-2.546-.037-2.546-2.195-5.262-.996-3.035-1.136-5.842-1.161-9.025l-.03-3.024-.012-3.252-.017-3.363a2959 2959 0 0 1-.02-7.043c-.01-3.581-.041-7.163-.072-10.744q-.01-3.425-.016-6.85l-.038-3.233c.037-12.137.037-12.137 4.366-16.466"/><path fill="#DA8A6F" d="M506 210h1l-.437 3.379c-2.87 23.13-3.15 46.347-3.563 69.621h-1c-1.234-7.708-1.199-15.397-1.187-23.187v-2.145c.029-16.07.384-32.203 5.187-47.668"/><path fill="#DBAA5F" d="m704 481 2 4h3l1.688 3.25c1.926 3.418 4.163 5.388 7.312 7.75v2h2v2l4 1v3h2v3h2a381 381 0 0 1 5 6l2 1 1.188 2.188c2.373 3.683 5.41 6.1 8.812 8.812l-1 4c-4.346-4.133-8.383-8.372-12.125-13.062-3.768-4.695-7.75-9.117-11.875-13.5l-1.818-1.933-3.531-3.75a758 758 0 0 1-6.963-7.505l-2.114-2.297C704 485 704 485 703 482z"/><path fill="#BE7657" d="m878 270 2 1c-7.073 8.231-14.206 16.383-21.57 24.355-3.21 3.493-6.326 7.06-9.43 10.645l-3.937 4.5-1.778 2.031L842 314l-1-3h2l.813-1.687c1.296-2.525 2.612-4.95 4.187-7.313h2l2-5h3l.313-1.812c.785-2.5 1.656-3.563 3.687-5.188h2l1-3h2l.688-1.625c1.768-3.2 3.849-5.665 6.312-8.375h2l.25-1.812c.955-2.785 2.321-3.621 4.75-5.188"/><path fill="#FBE6B8" d="M726 568c.73 1.738.73 1.738 1 4-1.512 2.105-1.512 2.105-3.687 4.188-.706.694-1.41 1.39-2.137 2.105-2.215 1.738-3.447 2.26-6.176 2.707l-1.74.519c-2.858.608-5.483.556-8.406.503l-3.76-.061-4.047-.082-4.153-.072q-5.455-.094-10.91-.202-5.57-.104-11.14-.2Q659.92 581.21 649 581v-1l2.28-.004q10.701-.026 21.401-.128a1345 1345 0 0 1 11-.064c3.547-.004 7.093-.033 10.64-.077 1.993-.02 3.987-.014 5.98-.008 8.114-.129 14.784-1.25 21.699-5.719 1.847-1.96 2.806-3.555 4-6"/><path fill="#BF7A5C" d="M905 215c2.71 2.71 2.3 4.216 2.313 8-.292 13.283-5.723 23.485-15.102 32.887L890 258c.53-4.508 2.252-7.42 5-11h2l.871-2.184q1.074-2.68 2.164-5.351l1.028-2.528 1.035-2.535c1.645-4.381 1.994-7.886 1.902-12.59a134 134 0 0 1 0-5.812z"/><path fill="#BE7658" d="M516 331c-.187 1.875-.187 1.875-1 4-2.5 1.125-2.5 1.125-5 2l-1 2h-2l.125 3.313C507 346 507 346 505 349c-.428 2.79-.428 2.79-.562 5.945l-.227 3.512-.422 7.36-.226 3.503-.184 3.227L503 375l-2 1c-.608-30.088-.608-30.088 6-39 5.768-6 5.768-6 9-6"/><path fill="#C07758" d="m752 229 1 3c-1.187 2.164-1.187 2.164-3 4.625l-1.957 2.66L746 242l-1.887 2.621-1.8 2.441-1.637 2.223c-1.88 1.923-3.05 2.343-5.676 2.715v3h-2v3c-2.5 2.688-2.5 2.688-5 5l-3-1 1.8-2.133a677 677 0 0 0 15.349-18.973A263 263 0 0 1 752 229"/><path fill="#B97455" d="M501 390c2.423 2.423 2.344 3.317 2.633 6.656l.254 2.852.238 2.992.262 2.898c.53 6.215.72 12.366.613 18.602h2l.48 1.68c1.367 4.656 1.367 4.656 4.895 7.695L515 434l5 2c-3 2-3 2-5.812 1.563-4.156-2.037-6.936-4.5-9.188-8.563-1.791-5.986-2.507-12.177-3.125-18.375l-.257-2.495c-.592-6.054-.864-12.046-.618-18.13"/><path fill="#C17758" d="M724 263c1 3 1 3 .11 5.043l-1.36 2.144-1.328 2.168L720 274h-3l-.75 2.75c-1.672 4.346-3.693 6.394-7.75 8.625-2.75 1.543-2.75 1.543-4.5 4.75-2 2.875-2 2.875-4.75 3.75L697 294c3.644-4.333 7.402-8.535 11.25-12.687 5.478-5.923 10.645-12.067 15.75-18.313"/><path fill="#FCE7BD" d="m531.238 466.023 2.67.076c2.801.082 5.603.179 8.404.276l5.713.172q6.988.212 13.975.453v1c-6.953.614-13.87 1.017-20.848 1.148l-3.712.085q-3.7.079-7.4.11c-7.243.17-12.705 1.086-19.04 4.657l-2 1v-3q1.842-.941 3.688-1.875l2.074-1.055L517 468l2.063-1.068c4.118-1.307 7.889-1.071 12.175-.909"/><path fill="#DAA85B" d="m748 533 5 1v2h2l1 5h3l1 4h2a126 126 0 0 1 3.492 3.496c2.239 2.233 4.695 4.186 7.153 6.172L774 556v2l1.938.688C778 560 778 560 778.75 562.625L779 565c-5.443-4.54-10.503-9.35-15.5-14.375l-2.184-2.172C748 535.113 748 535.113 748 533"/><path fill="#BF7959" d="M782 201c-1.247 3.74-3.193 5.258-6 8l-1.812 2.375c-2.428 2.913-5.074 5.252-7.95 7.71a469 469 0 0 0-7.238 6.352l-2.312 2.06L755 229l-2-1c6.869-7.538 13.772-14.995 21.25-21.937l1.66-1.556C779.75 201 779.75 201 782 201"/><path fill="#F8E3B9" d="m890 571 2 1c-4.553 4.676-7.116 7.212-13.742 7.414l-3.485.117-3.648.094-3.531.117c-7.866.244-15.725.302-23.594.258v-1l2.32-.152c3.519-.234 7.037-.478 10.555-.723l3.648-.238c13.137-.836 13.137-.836 25.477-5.074 2.188-1.106 2.188-1.106 4-1.813"/><path fill="#FCE9BD" d="M792 575c2.54.473 5.008 1.002 7.49 1.73 9.082 2.643 17.883 2.82 27.26 2.957q2.375.05 4.75.104 5.75.124 11.5.209v1l-2.082.184-2.73.254-2.708.246c-2.607.25-2.607.25-5.48 1.316-2.373.095-4.75.13-7.125.125l-3.82.008C816 583 816 583 815 582c-1.827-.326-3.663-.61-5.5-.875-13.54-2.165-13.54-2.165-17.5-6.125"/><path fill="#FDECC5" d="M710 526c2.615.38 3.78.77 5.633 2.707l1.492 2.106 1.508 2.082C720 535 720 535 720.993 537.199c.938 2.152.938 2.152 4.007 2.801v4l1.922.75C729 546 729 546 729.828 547.813 732.125 559.72 732.125 559.72 731 565c-2.023 1.79-2.023 1.79-4 3l.5-1.875c1.588-9.927.083-16.628-5.5-25.125-3.03-3.9-6.279-7.596-9.586-11.262C710 527 710 527 710 526"/><path fill="#FCEBC3" d="M698 474c2.631 1.316 2.615 2.352 3.688 5.063 4.674 9.804 13.71 17.35 21.312 24.937l-1 2-4-2v-3h-2v-2h-2v-2l-1.75-.75c-3.736-2.076-5.894-4.182-7.25-8.25-2-1.209-2-1.209-4-2v-5h-2z"/><path fill="#DCAB5F" d="M845 456c4.372 3.305 7.568 6.804 10.855 11.176 2.796 3.682 5.688 7.282 8.582 10.887l1.651 2.06L870 485h-3a167 167 0 0 1-3-4l-3-1c-1.281-1.453-1.281-1.453-2.5-3.25l-1.293-1.902C853 468.408 853 468.408 853 466l-1.75-.125c-3.44-1.338-4.491-3.735-6.25-6.875z"/><path fill="#C68869" d="M815 188c38.646-.413 38.646-.413 57 2l-1 3q-4.407-.463-8.812-.937l-2.526-.264-2.432-.264-2.237-.238C853 191 853 191 850 190a224 224 0 0 0-7.95-.316l-2.34-.063a2801 2801 0 0 0-7.398-.184l-5.017-.13q-6.147-.16-12.295-.307z"/><path fill="#DDA654" d="M708 457c-1.034 3.015-1.946 4.942-4.125 7.313-3.601 5.161-1.86 11.78-.875 17.687-3.803-4.84-5.563-8.483-5.46-14.676.805-4.061 3.405-6.665 6.46-9.324 2-1 2-1 4-1"/><path fill="#BA7252" d="M747 411c-11.705 7.322-23.546 14.448-37 18l-1-2 3.75-1.125c6.991-2.323 13.696-5.63 19.922-9.562C735 415 735 415 738 415v-2h3v-2c2.49-1.245 3.41-.777 6 0"/><path fill="#C07A5C" d="M639 326c-12.593 7.098-32.052 4.643-46 5v-1c8.562-1.6 17.137-2.428 25.813-3.125l3.251-.265c5.665-.438 11.255-.706 16.936-.61"/><path fill="#DBAD61" d="m779 565 4 1v2l2.2.348c2.888.672 5.016 1.676 7.612 3.09 4.376 2.27 8.368 3.58 13.188 4.562v2l2 1c-10.873-.805-19.592-5.103-28-12z"/><path fill="#FBF0D3" d="M499 524h1v13h3l3 22-4-2 .07-1.863.055-2.45.07-2.425c-.037-2.546-.037-2.546-2.195-5.262-.883-2.756-1.12-5.225-1.098-8.11l.01-2.285.026-2.355.013-2.402q.02-2.925.049-5.848"/><path fill="#DAAB60" d="M810 419c4.95 4.147 9.593 8.465 14.125 13.063l1.8 1.814q1.735 1.748 3.463 3.502 1.558 1.568 3.154 3.097A101 101 0 0 1 836 444v2c-2.867-.573-3.861-.861-6-3v-3h-4l-1.437-2.937c-3.301-5.83-8.462-10.2-13.34-14.704C810 421 810 421 810 419"/><path fill="#C0795A" d="M696 294c.813 1.688.813 1.688 1 4-2.094 2.418-2.094 2.418-5 5l-2.719 2.676-2.781 2.637-2.781 2.675c-2.948 2.182-4.152 2.497-7.719 2.012a136 136 0 0 1 8.875-8.375c3.894-3.368 7.537-6.936 11.125-10.625"/><path fill="#E08F74" d="M554 191v1l-2.266.402-2.984.536-2.953.527c-2.661.469-2.661.469-4.688 1.062-2.287.513-4.314.586-6.656.57l-2.558-.01-2.645-.024-2.691-.014q-3.28-.018-6.559-.049c4.002-2.144 7.53-3.074 12.047-3.316l2.312-.127 2.391-.12 2.344-.13c4.975-.263 9.924-.347 14.906-.307"/><path fill="#FEEFC7" d="m717.688 450.875 2.449.055L722 451c-3.848 2.565-8.026 3.943-12.375 5.438-5.06 1.895-7.604 4.044-10.625 8.562-.79 2.486-.79 2.486-.812 4.875l-.145 2.367L698 474h-1c-1.06-10.404-1.06-10.404 1.348-14.027 3.497-3.02 7.454-5.065 11.652-6.973 3.204-2.136 4.02-2.231 7.688-2.125"/><path fill="#E1876C" d="m692 258 3 1-20 20c1.23-7.123 7.403-12.885 13-17l1-2h3z"/><path fill="#FDE2C8" d="M694 259c0 4.213-1.841 5.342-4.687 8.375l-2.637 2.836A443 443 0 0 1 679 278l-2.457 2.457L670 287l-2-1 1.723-1.687c3.695-3.653 7.337-7.3 10.715-11.25 4.245-4.957 8.908-9.493 13.562-14.063"/><path fill="#FAE2C8" d="M775 388c0 3 0 3-2.668 5.777a339 339 0 0 1-3.52 3.16l-1.751 1.592C757.678 407 757.678 407 755 407v3h-6c3.366-3.507 6.814-6.465 10.75-9.312 5.361-3.955 10.366-8.161 15.25-12.688"/><path fill="#FAE3CC" d="m900 245 2 2c-.389 3.013-1.265 4.397-3 7l-2.293 1.332c-3.297 2.031-5.462 4.457-8.02 7.356l-1.376 1.548Q885.648 266.112 884 268c0-4.262 2.49-6.218 5.188-9.25a1344 1344 0 0 0 4.496-5.19c2.302-2.728 4.322-5.603 6.316-8.56"/><path fill="#D8AC67" d="M900 521c6.306 6.74 7.456 14.144 7.238 23.113-.316 3.829-1.11 7.22-2.238 10.887-1.278-3.873-1.07-7.727-1-11.75.055-5.509-.093-10.81-1-16.25l-3-1z"/><path fill="#DBA34F" d="M503 530h2l.367 3.55c.905 8.553 1.888 17.02 3.633 25.45-3.207-1.604-3.891-4.772-5-8-1.542-6.87-1.087-13.997-1-21"/><path fill="#DCAC63" d="M654 472c7.51 2.336 12.451 7.652 18 13l-3 2-2.187-2.312c-2.652-2.732-2.652-2.732-5.625-4.375L659 479v-2l-5-2z"/><path fill="#BF7656" d="m837 316 2 1q-2.84 3.346-5.687 6.688l-1.608 1.896c-3.1 3.633-6.277 7.09-9.705 10.416l-1-3h2l.813-1.812c1.18-2.175 2.455-3.456 4.187-5.188l1-3h2v-2h2v-2h2v-2z"/><path fill="#DBAB5E" d="m733 448-1 2h-2v2l-2.484.586-3.266.789-3.234.773c-2.941.73-2.941.73-5.203 1.946-2.608 1.303-4.948 1.036-7.813.906 4.1-2.734 8.502-4.356 13.063-6.187l2.798-1.155 2.674-1.076 2.45-.993C731 447 731 447 733 448"/><path fill="#FAE3B5" d="M627 467h20v2l2.3.043c2.98.143 5.78.345 8.7.957 2.188 2.563 2.188 2.563 3 5-9-3-9-3-11.687-4.031-4.367-1.277-8.67-1.679-13.188-2.094l-2.664-.262A1377 1377 0 0 0 627 468z"/><path fill="#DE896E" d="m670 280 4 1c-5.974 6.575-12.449 12.15-21 15v-2c2.905-2.042 4.401-3 8-3v-3h2v-2a375 375 0 0 1 6-4z"/><path fill="#C08063" d="M811 190h-3v2l-1.828.586-2.422.789-2.39.773c-2.364.789-2.364.789-4.454 1.977-2.81 1.29-4.968.543-7.906-.125 6.064-4.043 14.69-8.27 22-6"/><path fill="#FDEFD6" d="M728 205h2c2.27 3.406 2.157 4.971 1.55 8.93-.852 3.207-2.49 5.51-4.55 8.07l-2 1 .938-2.812c1.44-4.967 1.709-10.05 2.062-15.188"/><path fill="#FBE3C7" d="m753 224 3 2-4.875 5.375-1.395 1.54c-1.876 2.066-3.756 4.11-5.73 6.085l-1-3h2l.313-1.75c.796-2.607 1.878-4.224 3.687-6.25h2v-3z"/><path fill="#BE7556" d="M764 397v2c-1.377 1.237-1.377 1.237-3.281 2.602l-2.051 1.484-2.168 1.539-2.168 1.563q-2.66 1.914-5.332 3.812l-3-2a399 399 0 0 1 3.813-3l2.144-1.687C754 402 754 402 757 402v-2h3v-2c2-1 2-1 4-1"/><path fill="#FBE0C5" d="m729 254 3 1c-9.41 10.558-9.41 10.558-14 15v-3l3-1c.733-2.015.733-2.015 1-4h2l.25-1.75c.955-2.866 2.535-4.25 4.75-6.25"/><path fill="#FBEBC3" d="m875 487 1 2h2c2.748 3.58 4.47 6.492 5 11-4.771-3.579-7.29-6.686-10-12z"/><path fill="#DEAD64" d="M870 486c4.924 4.765 9.443 9.887 14 15l-3 1c-5-5.75-5-5.75-5-8h-2v-2l-4-1z"/><path fill="#D9A453" d="m720 500 4 1v3h2v3h2c1.508 1.75 1.508 1.75 3.125 4l1.633 2.25L734 515c-3.147-.302-4.075-1.078-6.324-3.398l-2.364-2.977-2.386-2.96C721 503 721 503 720 500"/><path fill="#F8DEC4" d="m795 368 1 3-12 12-3-1z"/><path fill="#C07B5C" d="M895 199c4.122 3.768 7.63 7.889 10 13l-1 2h-2v-4l-3-1c-1.168-1.777-1.168-1.777-2.187-3.937l-1.043-2.153C895 201 895 201 895 199"/><path fill="#C17E60" d="M664 320c-1.875 3.875-1.875 3.875-3 5-2.353.073-4.708.084-7.062.063l-3.91-.028L647 325v-1l2.773-.621 3.602-.817 3.586-.808c2.527-.627 4.481-1.754 7.039-1.754"/><path fill="#F9E3B5" d="M502 537h1l3 22-4-2z"/><path fill="#DCAD65" d="M685 500c4.56 3.613 8.017 6.988 11 12-1.875-.25-1.875-.25-4-1a179 179 0 0 1-2-4l-2.062-.937L686 505c-.75-2.625-.75-2.625-1-5"/><path fill="#FAE5B9" d="M698 474c2.76 1.38 3.136 3.044 4.438 5.813 1.586 3.366 3.235 6.277 5.562 9.187-5.875-1.875-5.875-1.875-7-3a100 100 0 0 1 0-5h-2z"/><path fill="#F8E3B4" d="m792.188 408.938 3.292.027L798 409v1l-1.836.008c-7.375.34-12.16 2.815-18.164 6.992v-3h2v-2h3v-2c3.285-1.095 5.737-1.1 9.188-1.062"/><path fill="#DC8F72" d="m518 195 2 1-1.898 1.61-2.477 2.14-2.46 2.11c-2.023 2-3.097 3.535-4.165 6.14h-2c1.875-4.75 1.875-4.75 3-7h2l1-3c2.438-1.75 2.438-1.75 5-3"/><path fill="#FAE6BB" d="M726 568c.727 1.73.727 1.73 1 4-1.477 2.176-1.477 2.176-3.625 4.313l-2.102 2.175C719 580 719 580 716.227 579.73L714 579c2.134-1.66 4.175-3.094 6.563-4.375 2.798-1.866 3.916-3.663 5.437-6.625"/><path fill="#D9AB63" d="m898 562 2 1c-3.251 4.741-7.106 7.209-12 10 0-3 0-3 2.25-5.687C893 565 893 565 897 565z"/><path fill="#FBE7BD" d="m804 409 1 2 1.938.375c2.062.625 2.062.625 3.375 2.5C811 416 811 416 810 419l-1.645-1.46c-.715-.633-1.43-1.264-2.168-1.915l-2.144-1.898c-2.131-1.868-2.131-1.868-5.043-3.727z"/><path fill="#FBE8BD" d="M722 451c-2.87 1.914-5.334 2.964-8.562 4.125l-2.942 1.07C708 457 708 457 706 457v-2c5.542-3.773 9.345-4.543 16-4"/><path fill="#DBB06C" d="m702 460 1 3-2 3c-.454 2.28-.454 2.28-.625 4.688l-.227 2.449L700 475l-2-1c-.63-8.035-.63-8.035 2-12.062z"/><path fill="#F7DCC1" d="M721 425v2c-4.854 3.467-9.14 4.167-15 4 2.7-1.8 5.067-2.934 8.063-4.125l2.66-1.07C719 425 719 425 721 425"/><path fill="#BE795A" d="m747 411-13 8-1-3 5-1v-2h3v-2c2-1 2-1 6 0"/><path fill="#FBDCC2" d="M709 242c0 3 0 3-1 6-2.526 2.526-5.245 4.724-8 7l-2-1z"/><path fill="#FAE6B8" d="M772 559c7.483 6.15 7.483 6.15 10 10l-2 1-1-2-2.562-1.5L774 565v-2h-2z"/><path fill="#FCECC4" d="M697 509c2.547.876 3.736 1.582 5.188 3.875.775 2.028 1.305 4.017 1.812 6.125a592 592 0 0 1-3.375-2.812l-1.898-1.583C697 513 697 513 695 510z"/><path fill="#BD7A5B" d="M516 331c-.187 1.875-.187 1.875-1 4-2.5 1.125-2.5 1.125-5 2l-1 2h-2v2l-2-1a975 975 0 0 1 3.375-3.937l1.898-2.215C512.22 331.765 513.134 331 516 331"/><path fill="#FDE6CC" d="m697 290 3 1-10 10-1-4c5.75-5 5.75-5 8-5z"/><path fill="#DA8D72" d="M503 284h2v3h2c2.296 2.561 3 3.48 3 7l3 1-2 1c-5.993-5.831-5.993-5.831-8-9z"/><path fill="#DCB067" d="M889 508c3.92 3.804 7.491 7.816 11 12l-2 1-1-2-3-1c-1.562-2.375-1.562-2.375-3-5l-2-3z"/><path fill="#FBE8BF" d="M670 483c2.717.367 4.61.727 6.875 2.313L678 487c-.43 2.105-.43 2.105-1 4q-1.755-1.716-3.5-3.437l-1.969-1.934C670 484 670 484 670 483"/><path fill="#FDF3D0" d="m576 463 2 3c-3.15 1.05-5.388 1.101-8.687 1.063l-3.012-.028L564 467l2-2h6c2.302-.898 2.302-.898 4-2"/><path fill="#F5D8BD" d="m821 337 1 3-9 10-2-1z"/><path fill="#FDE0C7" d="M528 192c-2.854 1.506-5.681 2.632-8.75 3.625-.8.26-1.598.52-2.422.79L515 197v-2h2v-2c3.77-2.564 6.674-1.832 11-1"/><path fill="#E0A854" d="M659 477a668 668 0 0 1 5.375 2.813l3.023 1.582C670 483 670 483 672 486l-3 1-2.187-2.312c-2.652-2.732-2.652-2.732-5.625-4.375L659 479z"/><path fill="#FCEFCE" d="m505 476 2 1-1.023 1.426-1.352 1.887-1.336 1.863A215 215 0 0 0 500 487l1-7h2z"/><path fill="#F7DAC1" d="M809 352c0 3.699-.844 4.358-3.25 7.063l-1.828 2.097c-1.892 1.811-3.528 2.818-5.922 3.84l1.137-1.32A872 872 0 0 0 809 352"/><path fill="#F7DCC4" d="M865 287h1v5l-1.687.688c-2.945 1.671-4.995 3.865-7.313 6.312l-2-1 1.426-1.39c3.114-3.07 6.013-6.053 8.574-9.61"/><path fill="#FAD7BD" d="M707 188h10v2h5l-1 4-1.937-1.375c-3.902-2.07-7.747-2.826-12.063-3.625z"/><path fill="#DCA54E" d="m771 555 3 1v2l1.938.688C778 560 778 560 778.75 562.625L779 565c-6.571-5-6.571-5-8-10"/><path fill="#B77150" d="m706 284 2 1-1.875 1.75c-2.194 2.064-2.194 2.064-3.062 4.438C702 293 702 293 699.375 293.75L697 294q1.404-1.659 2.813-3.312l1.582-1.864A88 88 0 0 1 706 284"/><path fill="#DFA95D" d="M724 566h1c-.492 6.523-.492 6.523-3.062 8.938-.64.35-1.28.7-1.938 1.062l-1-3c.96-1.824.96-1.824 2.375-3.687l1.398-1.887z"/><path fill="#DAAB5B" d="M744 441v3h-2v2c-2.709 1.354-5.01 1.065-8 1 3.124-2.523 6.38-4.273 10-6"/><path fill="#F8D6BB" d="M728 205h1c.108 2.439.187 4.873.25 7.313l.102 2.091c.039 2.022.039 2.022-.352 5.596-2.016 1.98-2.016 1.98-4 3l.938-2.812c1.44-4.967 1.709-10.05 2.062-15.188"/><path fill="#C37858" d="M800 193c-1.31 2.62-2.25 3.034-5 4-3.25-.375-3.25-.375-6-1 4.134-2.756 6.052-3.108 11-3"/><path fill="#DEAB5F" d="M677 491c3.63 2.65 5.899 5.018 8 9l-4-2v-2l-3 1c-1-1-1-1-1.062-3.562z"/><path fill="#F6E2C7" d="m703 283 3 2-6 5-1-5z"/><path fill="#F9DBC2" d="M882 268c0 3.78-.997 4.461-3.5 7.188l-1.969 2.167L875 279l-2-1z"/><path fill="#C37758" d="m887 257 3 1-5 7-2-4h2v-2h2z"/><path fill="#DCAF69" d="M713 530c3.288 3.11 5.837 6.016 8 10h-2v-2l-4-1z"/><path fill="#DCAD67" d="M705 521c2.932 2.853 5.643 5.65 8 9-4.75-1.875-4.75-1.875-7-3-.625-3.062-.625-3.062-1-6"/><path fill="#FBE8BD" d="M862 475h3v2h2a101 101 0 0 1 3 6l-1 2q-1.754-2.216-3.5-4.437l-1.969-2.497C862 476 862 476 862 475"/><path fill="#F5D4B8" d="M690 436c-11.522 3.629-11.522 3.629-17 2v-1q3.123-.544 6.25-1.062l3.516-.598c2.86-.3 4.567-.284 7.234.66"/><path fill="#F6DBC4" d="M885 189v2c-4.63 1.016-8.345.838-13 0v-1c4.376-.593 8.575-1.138 13-1"/><path fill="#FBE6B2" d="m774 417 4 1-9 7-1-3 4-1v-2h2z"/><path fill="#FAE0C7" d="M741 415c-1 3-1 3-3.812 4.75-3.328 1.305-3.984 1.279-7.188.25a805 805 0 0 1 4.375-2.5l2.46-1.406C739 415 739 415 741 415"/><path fill="#E88062" d="m513 201 1 2-1.023 1.426-1.352 1.887-1.336 1.863A215 215 0 0 0 507 213v-5h2l.875-2.375C511 203 511 203 513 201"/><path fill="#F9DEC6" d="M804 190v1q-2.374.72-4.75 1.438l-2.672.808A141 141 0 0 1 790 195v-2c4.925-1.997 8.644-3.119 14-3"/><path fill="#FCEABD" d="m513 569 10 5c-4.408 1.102-5.892.587-10-1z"/><path fill="#FDEBBC" d="M736 445c-2.228 2.228-3.658 2.692-6.625 3.625-.817.26-1.635.52-2.477.79L725 450v-2c3.72-2.845 6.374-3.323 11-3"/><path fill="#FDEBBF" d="M822 430h5l2 7a858 858 0 0 1-3.5-2.937l-1.969-1.653L822 431z"/><path fill="#DD8469" d="m708 240 1 3c-1.215 1.824-1.215 1.824-2.937 3.688l-1.715 1.886L703 250l-1-3c1.215-1.824 1.215-1.824 2.938-3.687l1.714-1.887z"/><path fill="#C27A5E" d="M869 279h2c-.398 2.886-.79 3.822-3.062 5.75L866 286c0-3.52.704-4.439 3-7"/><path fill="#FADDC5" d="m721 227 1 2c-2.337 3.839-3.863 6.21-8 8q1.467-2.22 2.938-4.437l1.652-2.497C720 228 720 228 721 227"/><path fill="#DBAC65" d="M734 514c4.429 5.143 4.429 5.143 5 9-2.648-2.578-4.944-4.916-7-8z"/><path fill="#D9A759" d="M876 494q1.723 1.432 3.438 2.875l1.933 1.617C883 500 883 500 884 502c-3.175-.34-4.023-1.025-6.25-3.437C876 496 876 496 876 494"/><path fill="#F5D9BF" d="m833 323 1 3-6 6-2-1z"/><path fill="#DB8469" d="M679 271h2c-1.443 3.366-3.333 5.51-6 8 .597-3.342 1.736-5.464 4-8"/><path fill="#DC947A" d="m692 258 3 1-7 6 1-5h3z"/><path fill="#FDE9BF" d="M678 491c4 1 4 1 6 3l-1 4z"/><path fill="#C07553" d="m512 433 8 4c-2.312.688-2.312.688-5 1-1.812-1.312-1.812-1.312-3-3z"/><path fill="#C37E5D" d="M697 430c3.625.375 3.625.375 7 1-2.572 1.62-3.677 2.044-6.75 1.625L695 432z"/><path fill="#D9AD61" d="m765 427 1 3h-2v2l-6 1c2.257-2.335 4.28-4.187 7-6"/><path fill="#FAE0C4" d="m787 194 2 2-8 5 1-4 5-1z"/></svg>